<svg width="24" height="24" viewBox="0 0 24 24" fill="none" xmlns="http://www.w3.org/2000/svg">
<path fill-rule="evenodd" clip-rule="evenodd" d="M5 17.9995V11.9995V5.99951C5 5.43119 5.07804 4.90138 5.5 4.49951C5.92196 4.09765 6.40326 3.99951 7 3.99951H17C17.5967 3.99951 18.078 4.09765 18.5 4.49951C18.922 4.90138 19 5.43119 19 5.99951V17.9995C19 18.5678 18.922 19.0976 18.5 19.4995C18.078 19.9014 17.5967 19.9995 17 19.9995H7C6.40326 19.9995 5.92196 19.9014 5.5 19.4995C5.07804 19.0976 5 18.5678 5 17.9995ZM7 21.9995C5.80653 21.9995 4.84391 21.8032 4 20.9995C3.15609 20.1958 3 19.1362 3 17.9995V6.28523C3 5.14858 3.15609 3.80324 4 2.99951C4.84391 2.19578 5.80653 1.99951 7 1.99951H17C18.1935 1.99951 19.1561 2.19578 20 2.99951C20.8439 3.80324 21 4.86287 21 5.99951V17.9995C21 19.1362 20.8439 20.1958 20 20.9995C19.1561 21.8032 18.1935 21.9995 17 21.9995H7ZM8.08209 5.99951C8.08209 5.99951 8.08209 5.99951 8.00033 5.99951C7.44805 5.99951 7 6.44723 7 6.99951V6.99951C7 7.26656 7 8.15072 7 8.99956C7 9.55185 7.44772 9.99951 8 9.99951V9.99951H16V9.99951C16.5523 9.99951 17 9.55209 17 8.9998C17 8.20919 17 7.2434 17 6.99951V6.99951C17 6.44723 16.5523 5.99951 16 5.99951V5.99951H8.08209ZM9 16.9995C9 17.3784 9.2813 17.7316 9 17.9995C8.7187 18.2674 8.39782 17.9995 8 17.9995C7.60218 17.9995 7.2813 18.2674 7 17.9995C6.7187 17.7316 7 17.3784 7 16.9995C7 16.6206 6.7187 16.2674 7 15.9995C7.2813 15.7316 7.60218 15.9995 8 15.9995C8.39782 15.9995 8.7187 15.7316 9 15.9995C9.2813 16.2674 9 16.6206 9 16.9995ZM12 17.9995C12.3978 17.9995 12.7187 18.2674 13 17.9995C13.2813 17.7316 13 17.3784 13 16.9995C13 16.6206 13.2813 16.2674 13 15.9995C12.7187 15.7316 12.3978 15.9995 12 15.9995C11.6022 15.9995 11.2813 15.7316 11 15.9995C10.7187 16.2674 11 16.6206 11 16.9995C11 17.3784 10.7187 17.7316 11 17.9995C11.2813 18.2674 11.6022 17.9995 12 17.9995ZM17 16.9995C17 17.3784 17.2813 17.7316 17 17.9995C16.7187 18.2674 16.3978 17.9995 16 17.9995C15.6022 17.9995 15.2813 18.2674 15 17.9995C14.7187 17.7316 15 17.3784 15 16.9995C15 16.6206 14.7187 16.2674 15 15.9995C15.2813 15.7316 15.6022 15.9995 16 15.9995C16.3978 15.9995 16.7187 15.7316 17 15.9995C17.2813 16.2674 17 16.6206 17 16.9995ZM8 13.9995C8.39782 13.9995 8.7187 14.2674 9 13.9995C9.2813 13.7316 9 13.3784 9 12.9995C9 12.6206 9.2813 12.2674 9 11.9995C8.7187 11.7316 8.39782 11.9995 8 11.9995C7.60218 11.9995 7.2813 11.7316 7 11.9995C6.7187 12.2674 7 12.6206 7 12.9995C7 13.3784 6.7187 13.7316 7 13.9995C7.2813 14.2674 7.60218 13.9995 8 13.9995ZM13 12.9995C13 13.3784 13.2813 13.7316 13 13.9995C12.7187 14.2674 12.3978 13.9995 12 13.9995C11.6022 13.9995 11.2813 14.2674 11 13.9995C10.7187 13.7316 11 13.3784 11 12.9995C11 12.6206 10.7187 12.2674 11 11.9995C11.2813 11.7316 11.6022 11.9995 12 11.9995C12.3978 11.9995 12.7187 11.7316 13 11.9995C13.2813 12.2674 13 12.6206 13 12.9995ZM16 13.9995C16.3978 13.9995 16.5 14.4995 17 13.9995C17.5 13.4995 17 13.3784 17 12.9995C17 12.6206 17.5 12.4995 17 11.9995C16.5 11.4995 16.3978 11.9995 16 11.9995C15.6022 11.9995 15.5 11.4995 15 11.9995C14.5 12.4995 15 12.6206 15 12.9995C15 13.3784 14.5 13.4995 15 13.9995C15.5 14.4995 15.5 13.9995 16 13.9995Z" fill="black"/>
</svg>
