<svg width="24" height="24" viewBox="0 0 24 24" fill="none" xmlns="http://www.w3.org/2000/svg">
<path d="M18 2C19.6569 2 21 3.34315 21 5V19C21 20.6569 19.6569 22 18 22H6C4.39489 22 3.08421 20.7394 3.00391 19.1543C3.00132 19.1032 3 19.0517 3 19V5C3 3.34315 4.34315 2 6 2H18ZM9 16C8.7187 15.7321 8.39782 16 8 16C7.60218 16 7.2813 15.7321 7 16C6.7191 16.2679 7 16.6212 7 17C6.99976 17.3787 6.71882 17.7322 7 18C7.28125 18.2675 7.60229 18 8 18C8.39771 18 8.71875 18.2675 9 18C9.28118 17.7322 9.00024 17.3787 9 17C9 16.6212 9.2809 16.2679 9 16ZM13 16C12.7187 15.7321 12.3978 16 12 16C11.6022 16 11.2813 15.7321 11 16C10.7191 16.2679 11 16.6212 11 17C10.9998 17.3787 10.7188 17.7322 11 18C11.2812 18.2675 11.6023 18 12 18C12.3977 18 12.7188 18.2675 13 18C13.2812 17.7322 13.0002 17.3787 13 17C13 16.6212 13.2809 16.2679 13 16ZM17 16C16.7187 15.7321 16.3978 16 16 16C15.6022 16 15.2813 15.7321 15 16C14.7191 16.2679 15 16.6212 15 17C14.9998 17.3787 14.7188 17.7322 15 18C15.2812 18.2675 15.6023 18 16 18C16.3977 18 16.7188 18.2675 17 18C17.2812 17.7322 17.0002 17.3787 17 17C17 16.6212 17.2809 16.2679 17 16ZM17 12C16.5 11.5 16.3978 12 16 12C15.6022 12 15.5 11.5 15 12C14.5004 12.4998 15 12.6212 15 13C14.9996 13.3785 14.5002 13.5002 15 14C15.4998 14.4996 15.5001 14 16 14C16.3978 14 16.5002 14.4996 17 14C17.4998 13.5002 17.0004 13.3785 17 13C17 12.6212 17.4996 12.4998 17 12ZM9 12C8.7187 11.7321 8.39782 12 8 12C7.60218 12 7.2813 11.7321 7 12C6.7191 12.2679 7 12.6212 7 13C6.99976 13.3787 6.71882 13.7322 7 14C7.28125 14.2675 7.60229 14 8 14C8.39771 14 8.71875 14.2675 9 14C9.28118 13.7322 9.00024 13.3787 9 13C9 12.6212 9.2809 12.2679 9 12ZM13 12C12.7187 11.7321 12.3978 12 12 12C11.6022 12 11.2813 11.7321 11 12C10.7191 12.2679 11 12.6212 11 13C10.9998 13.3787 10.7188 13.7322 11 14C11.2812 14.2675 11.6023 14 12 14C12.3977 14 12.7188 14.2675 13 14C13.2812 13.7322 13.0002 13.3787 13 13C13 12.6212 13.2809 12.2679 13 12ZM8 6C7.44787 6.00018 7 6.44783 7 7V9C7.00024 9.55208 7.44786 10 8 10H16C16.5522 10 16.9999 9.55219 17 9V7C17 6.44772 16.5523 6 16 6H8Z" fill="black"/>
</svg>
