<svg width="24" height="24" viewBox="0 0 24 24" fill="none" xmlns="http://www.w3.org/2000/svg">
<path d="M4 9H20M4 9V17.8002C4 18.9203 4 19.4801 4.21799 19.9079C4.40973 20.2842 4.71547 20.5905 5.0918 20.7822C5.5192 21 6.07899 21 7.19691 21H16.8031C17.921 21 18.48 21 18.9074 20.7822C19.2837 20.5905 19.5905 20.2842 19.7822 19.9079C20 19.4805 20 18.9215 20 17.8036V9M4 9V8.2002C4 7.08009 4 6.51962 4.21799 6.0918C4.40973 5.71547 4.71547 5.40973 5.0918 5.21799C5.51962 5 6.08009 5 7.2002 5H8M20 9V8.19691C20 7.07899 20 6.5192 19.7822 6.0918C19.5905 5.71547 19.2837 5.40973 18.9074 5.21799C18.4796 5 17.9203 5 16.8002 5H16M16 3V5M16 5H8M8 3V5" stroke="black" stroke-width="2" stroke-linecap="round" stroke-linejoin="round"/>
</svg>
