<svg width="24" height="24" viewBox="0 0 24 24" fill="none" xmlns="http://www.w3.org/2000/svg">
<path d="M16 1C16.5523 1 17 1.44772 17 2V3.00098C17.4591 3.00125 17.8596 3.00283 18.1953 3.03027C18.5905 3.06261 18.9832 3.13448 19.3613 3.32715C19.9246 3.61418 20.3847 4.07225 20.6729 4.6377C20.8655 5.01581 20.9374 5.40888 20.9697 5.80371C21.001 6.187 21 6.6548 21 7.19727V16.8037C21 17.3461 21.0011 17.8132 20.9697 18.1963C20.9374 18.5911 20.8655 18.9843 20.6729 19.3623C20.385 19.927 19.9251 20.3856 19.3613 20.6729C18.9833 20.8655 18.5902 20.9374 18.1953 20.9697C17.8123 21.001 17.345 21 16.8027 21H7.19727C6.6548 21 6.187 21.001 5.80371 20.9697C5.40888 20.9374 5.01581 20.8655 4.6377 20.6729C4.0729 20.385 3.61445 19.926 3.32715 19.3623C3.13441 18.984 3.06259 18.5906 3.03027 18.1953C2.99892 17.8117 3 17.3433 3 16.7998V7.2002C3 6.65663 2.99893 6.18845 3.03027 5.80469C3.06258 5.40941 3.13437 5.01605 3.32715 4.6377C3.61475 4.07333 4.07334 3.61475 4.6377 3.32715C5.01604 3.13437 5.40941 3.06258 5.80469 3.03027C6.14049 3.00285 6.54102 3.00126 7 3.00098V2C7 1.44772 7.44772 1 8 1C8.55228 1 9 1.44772 9 2V3H15V2C15 1.44772 15.4477 1 16 1ZM6 5C5.44772 5 5 5.44772 5 6C5 6.55228 5.44772 7 6 7H18C18.5523 7 19 6.55228 19 6C19 5.44772 18.5523 5 18 5H6Z" fill="black"/>
</svg>
