<svg width="24" height="24" viewBox="0 0 24 24" fill="none" xmlns="http://www.w3.org/2000/svg">
<path d="M21 17.8037C21 18.3461 21.0011 18.8132 20.9697 19.1963C20.9374 19.5911 20.8655 19.9843 20.6729 20.3623C20.385 20.927 19.9251 21.3856 19.3613 21.6729C18.9833 21.8655 18.5902 21.9374 18.1953 21.9697C17.8123 22.001 17.345 22 16.8027 22H7.19727C6.65481 22 6.187 22.001 5.80372 21.9697C5.40889 21.9374 5.01581 21.8655 4.6377 21.6729C4.0729 21.385 3.61445 20.926 3.32715 20.3623C3.13441 19.984 3.06259 19.5906 3.03028 19.1953C2.99893 18.8117 3 18.3433 3 17.7998V11C3 10.4477 3.44772 10 4 10H20C20.5523 10 21 10.4477 21 11V17.8037ZM19 4C20.1046 4 21 4.89543 21 6V7C21 7.55228 20.5523 8 20 8H4C3.44772 8 3 7.55228 3 7V6C3 4.89543 3.89544 4 5 4H7V3C7 2.44772 7.44773 2.00001 8 2C8.55229 2 9 2.44772 9 3V4H15V3C15 2.44772 15.4477 2.00001 16 2C16.5523 2 17 2.44772 17 3V4H19Z" fill="black"/>
</svg>
