<svg width="24" height="24" viewBox="0 0 24 24" fill="none" xmlns="http://www.w3.org/2000/svg">
<path d="M9 15C10.8267 15 12.5253 15.4922 13.7969 16.3398C15.0614 17.1829 16 18.457 16 20C16 20.5523 15.5523 21 15 21H3C2.44772 21 2 20.5523 2 20C2 18.457 2.93856 17.1829 4.20312 16.3398C5.47467 15.4922 7.17334 15 9 15ZM16.0264 15.998C16.1531 15.4605 16.692 15.1272 17.2295 15.2539C19.7333 15.8439 22 17.5594 22 20C22 20.5523 21.5523 21 21 21H18C17.4477 21 17 20.5523 17 20V19.5303C17 18.8586 16.8013 18.2015 16.4287 17.6426L16.3809 17.5703C16.1329 17.1983 16 16.7615 16 16.3145C16 16.3088 16.0016 16.3034 16.002 16.2979C15.995 16.1997 16.0026 16.0988 16.0264 15.998ZM9 4C11.7614 4 14 6.23858 14 9C14 11.7614 11.7614 14 9 14C6.23858 14 4 11.7614 4 9C4 6.23858 6.23858 4 9 4ZM15 4C17.7614 4 20 6.23858 20 9C20 11.7614 17.7614 14 15 14C14.4477 14 14 13.5523 14 13C14 12.6723 14.0855 12.3499 14.248 12.0654L14.2988 11.9766C15.3528 10.132 15.3528 7.86796 14.2988 6.02344L14.248 5.93457C14.0855 5.65009 14 5.32765 14 5C14 4.44772 14.4477 4 15 4Z" fill="black"/>
</svg>
