<svg width="24" height="24" viewBox="0 0 24 24" fill="none" xmlns="http://www.w3.org/2000/svg">
<g clip-path="url(#clip0_1814_601)">
<path d="M8.5 9V6.2002C8.5 5.08009 8.5 4.51962 8.71799 4.0918C8.90973 3.71547 9.21547 3.40973 9.5918 3.21799C10.0196 3 10.5801 3 11.7002 3H17.3002C18.4203 3 18.9801 3 19.4079 3.21799C19.7842 3.40973 20.0905 3.71547 20.2822 4.0918C20.5002 4.51962 20.5002 5.07967 20.5002 6.19978V11.7998C20.5002 12.9199 20.5002 13.48 20.2822 13.9078C20.0905 14.2841 19.7839 14.5905 19.4076 14.7822C18.9802 15 18.421 15 17.3031 15H14.5M8.5 9H5.7002C4.58009 9 4.01962 9 3.5918 9.21799C3.21547 9.40973 2.90973 9.71547 2.71799 10.0918C2.5 10.5196 2.5 11.0801 2.5 12.2002V17.8002C2.5 18.9203 2.5 19.4801 2.71799 19.9079C2.90973 20.2842 3.21547 20.5905 3.5918 20.7822C4.0192 21 4.57899 21 5.69691 21H11.3036C12.4215 21 12.9805 21 13.4079 20.7822C13.7842 20.5905 14.0905 20.2839 14.2822 19.9076C14.5 19.4802 14.5 18.921 14.5 17.8031V15M8.5 9H11.3002C12.4203 9 12.9801 9 13.4079 9.21799C13.7842 9.40973 14.0905 9.71547 14.2822 10.0918C14.5 10.5192 14.5 11.079 14.5 12.1969L14.5 15" stroke="black" stroke-width="2" stroke-linecap="round" stroke-linejoin="round"/>
</g>
<defs>
<clipPath id="clip0_1814_601">
<rect width="24" height="24" fill="white"/>
</clipPath>
</defs>
</svg>
