<svg width="24" height="24" viewBox="0 0 24 24" fill="none" xmlns="http://www.w3.org/2000/svg">
<path d="M13.0088 2.00098C13.3004 2.00363 13.5802 2.01297 13.8721 2.08301C14.1789 2.15668 14.4715 2.27831 14.7393 2.44238C15.0654 2.64226 15.3326 2.9185 15.6445 3.23047L18.7705 6.35547C19.0837 6.66871 19.3579 6.93482 19.5576 7.26074C19.7215 7.5283 19.8433 7.82101 19.917 8.12793C19.9855 8.41322 19.995 8.68684 19.998 8.97266C19.9983 8.98175 20 8.99084 20 9C20 9.0062 19.9991 9.01238 19.999 9.01855C19.9997 9.11238 20 9.21571 20 9.32617V17.8037C20 18.3461 20.0011 18.8132 19.9697 19.1963C19.9374 19.5911 19.8655 19.9843 19.6729 20.3623C19.385 20.927 18.9251 21.3856 18.3613 21.6729C17.9833 21.8655 17.5902 21.9374 17.1953 21.9697C17.004 21.9854 16.7917 21.9924 16.5596 21.9961L15.8027 22H8.19727C7.65479 22 7.187 22.001 6.80371 21.9697C6.40888 21.9374 6.01581 21.8655 5.6377 21.6729C5.0729 21.385 4.61445 20.926 4.32715 20.3623C4.13441 19.984 4.06259 19.5906 4.03027 19.1953C3.99893 18.8117 4 18.3433 4 17.7998V6.2002C4 5.65664 3.99893 5.18844 4.03027 4.80469C4.06258 4.40941 4.13437 4.01604 4.32715 3.6377C4.61475 3.07333 5.07334 2.61475 5.6377 2.32715C6.01605 2.13437 6.40941 2.06258 6.80469 2.03027C7.18844 1.99893 7.65664 2 8.2002 2H12.6748C12.7959 2 12.9079 2.00006 13.0088 2.00098ZM8 16C7.44772 16 7 16.4477 7 17C7 17.5523 7.44772 18 8 18H16C16.5523 18 17 17.5523 17 17C17 16.4477 16.5523 16 16 16H8ZM8 12C7.44772 12 7 12.4477 7 13C7 13.5523 7.44772 14 8 14H14C14.5523 14 15 13.5523 15 13C15 12.4477 14.5523 12 14 12H8Z" fill="black"/>
</svg>
