<svg width="24" height="24" viewBox="0 0 24 24" fill="none" xmlns="http://www.w3.org/2000/svg">
<path d="M11.1484 2.78125C11.7036 2.61707 12.2954 2.61715 12.8506 2.78125C13.2193 2.89029 13.5264 3.07839 13.8135 3.29297C14.0905 3.5001 14.404 3.77534 14.7656 4.0918L19.5664 8.29199C19.9302 8.61034 20.2494 8.8804 20.4824 9.22363C20.6742 9.50631 20.8161 9.81945 20.9023 10.1494C21.0072 10.551 21 10.9698 21 11.4531V17.001C21 17.453 21.0004 17.8424 20.9785 18.1631C20.956 18.4928 20.9064 18.8228 20.7715 19.1484C20.4673 19.8825 19.8841 20.4677 19.1484 20.7725C18.8225 20.9074 18.4919 20.957 18.1621 20.9795C17.8413 21.0014 17.452 21.001 17 21.001C16.5478 21.001 16.1578 21.0014 15.8369 20.9795C15.5073 20.957 15.1773 20.9074 14.8516 20.7725C14.1161 20.4678 13.5328 19.8827 13.2285 19.1484C13.0936 18.8227 13.044 18.4927 13.0215 18.1631C12.9996 17.8424 13 17.4529 13 17.001V16.001C13 15.4487 12.5523 15.001 12 15.001C11.4477 15.001 11 15.4487 11 16.001V17.001C11 17.4529 11.0004 17.8424 10.9785 18.1631C10.956 18.4927 10.9064 18.8228 10.7715 19.1484C10.4673 19.8826 9.884 20.4677 9.14844 20.7725C8.82249 20.9074 8.49192 20.957 8.16211 20.9795C7.84126 21.0014 7.45204 21.001 7 21.001C6.54775 21.001 6.15776 21.0014 5.83691 20.9795C5.50729 20.957 5.17729 20.9074 4.85156 20.7725C4.11601 20.4677 3.53274 19.8826 3.22852 19.1484C3.09361 18.8227 3.04401 18.4927 3.02148 18.1631C2.9996 17.8425 3 17.4529 3 17.001V11.1025C3.00278 10.7625 3.01894 10.4509 3.09766 10.1494C3.18443 9.81746 3.32779 9.50472 3.51855 9.22363C3.75161 8.88031 4.07044 8.6106 4.43457 8.29199L9.23633 4.09082C9.59732 3.77495 9.90986 3.49988 10.1865 3.29297C10.4732 3.07859 10.78 2.89029 11.1484 2.78125ZM6.79883 19C6.86241 19.0001 6.92936 19.001 7 19.001C7.07064 19.001 7.13759 19.0001 7.20117 19H6.79883ZM16.7988 19C16.8624 19.0001 16.9294 19.001 17 19.001C17.0706 19.001 17.1376 19.0001 17.2012 19H16.7988Z" fill="black"/>
</svg>
