<svg width="24" height="24" viewBox="0 0 24 24" fill="none" xmlns="http://www.w3.org/2000/svg">
<path d="M7 9.66683V14.3335C7 15.2669 7 15.7334 7.18166 16.0899C7.34144 16.4035 7.59623 16.6587 7.90983 16.8185C8.266 17 8.73249 17 9.66409 17H14.3359C15.2675 17 15.7333 17 16.0895 16.8185C16.4031 16.6587 16.6587 16.4035 16.8185 16.0899C17 15.7337 17 15.2679 17 14.3363V9.66409C17 8.73249 17 8.266 16.8185 7.90983C16.6587 7.59623 16.4031 7.34144 16.0895 7.18166C15.733 7 15.2669 7 14.3335 7H9.66683C8.73341 7 8.26635 7 7.90983 7.18166C7.59623 7.34144 7.34144 7.59623 7.18166 7.90983C7 8.26635 7 8.73341 7 9.66683Z" stroke="black" stroke-width="2" stroke-linecap="round" stroke-linejoin="round"/>
</svg>
