<svg width="24" height="24" viewBox="0 0 24 24" fill="none" xmlns="http://www.w3.org/2000/svg">
<path d="M8.24341 1.63574C8.66158 1.54844 9.0952 1.55058 9.51392 1.64453C10.0234 1.75899 10.4783 2.04719 11.0081 2.36523L11.3645 2.57812C11.4326 2.61901 11.4389 2.62355 11.4485 2.62891C11.5873 2.70625 11.7427 2.74872 11.9026 2.75391C11.9147 2.7543 11.9307 2.75488 12.0012 2.75488C12.0724 2.75488 12.0875 2.7543 12.0999 2.75391C12.2595 2.74867 12.4147 2.7058 12.553 2.62891C12.564 2.62276 12.5782 2.61428 12.637 2.5791L12.9915 2.36719L13.0032 2.36133C13.5259 2.0482 13.9763 1.76557 14.4807 1.65234C14.8961 1.55919 15.3273 1.55507 15.7454 1.6416C16.2547 1.74711 16.7132 2.02479 17.2463 2.33203L17.7395 2.61621C18.2751 2.92482 18.7459 3.18229 19.093 3.57129C19.3775 3.89011 19.5906 4.26661 19.718 4.6748C19.8729 5.17122 19.8523 5.70578 19.842 6.31738L19.8342 6.74316C19.8332 6.80376 19.833 6.82452 19.8333 6.84082C19.8357 6.99975 19.8768 7.1567 19.9524 7.29785L20.05 7.46777C20.1336 7.60225 20.2489 7.71572 20.386 7.79785C20.3984 7.80531 20.4146 7.81491 20.47 7.8457L20.8342 8.04785C20.8355 8.04853 20.8369 8.04912 20.8381 8.0498C21.374 8.34789 21.8465 8.59691 22.1985 8.97852C22.4872 9.29159 22.7059 9.66338 22.8401 10.0674C23.0038 10.5604 22.993 11.0953 22.9944 11.71L22.9963 12.2842C22.9977 12.8947 23.0104 13.4304 22.8479 13.9248C22.7141 14.3314 22.4948 14.7053 22.2043 15.0205C21.8502 15.4047 21.3732 15.6553 20.8323 15.9551L20.4709 16.1553L20.469 16.1562L20.387 16.2021C20.2498 16.2839 20.1335 16.3982 20.0491 16.5342C20.0399 16.549 20.029 16.5674 20.0002 16.6172C19.9654 16.6775 19.9581 16.6905 19.9524 16.7012C19.8771 16.8416 19.8357 16.9989 19.8333 17.1592C19.833 17.1752 19.8332 17.1955 19.8342 17.2559L19.842 17.6953C19.8522 18.3007 19.8727 18.833 19.719 19.3271C19.5923 19.7341 19.3798 20.1092 19.0969 20.4277C18.7522 20.8156 18.2848 21.074 17.7561 21.3809L17.261 21.668C16.728 21.9773 16.2688 22.2574 15.7581 22.3643C15.3379 22.452 14.9044 22.448 14.4875 22.3545C14.1055 22.2687 13.7544 22.0864 13.3792 21.8662L12.6174 21.4092H12.6165C12.5694 21.3809 12.5601 21.3751 12.553 21.3711C12.4142 21.2937 12.2577 21.2503 12.0979 21.2451C12.0855 21.2447 12.0706 21.2441 11.9993 21.2441C11.9286 21.2441 11.9139 21.2447 11.9016 21.2451C11.743 21.2502 11.5878 21.2927 11.4485 21.3701C11.4368 21.3766 11.4225 21.3862 11.3645 21.4209L11.01 21.6318C10.4823 21.9478 10.0291 22.2336 9.52173 22.3477C9.10523 22.4412 8.67333 22.4447 8.2561 22.3584C7.74679 22.253 7.28943 21.9753 6.7561 21.668L6.26196 21.3838C5.72716 21.0756 5.25574 20.8179 4.90845 20.4287C4.62374 20.1096 4.41085 19.7333 4.28345 19.3252C4.12822 18.8278 4.148 18.2918 4.15845 17.6729L4.16626 17.2656C4.16749 17.1926 4.16747 17.1757 4.16724 17.1621C4.16445 17.0037 4.12451 16.8492 4.052 16.7119C4.04667 16.7019 4.0419 16.6948 4.00024 16.6221C3.96244 16.556 3.95544 16.5425 3.94849 16.5312C3.86481 16.3961 3.74948 16.2831 3.61353 16.2012C3.60332 16.195 3.59481 16.1901 3.52173 16.1494L3.16431 15.9502C2.62687 15.6512 2.1551 15.4023 1.80298 15.0205C1.51306 14.7061 1.29502 14.3342 1.16138 13.9316C0.998066 13.4394 1.00751 12.908 1.0061 12.29L1.00415 11.7275C1.00274 11.1073 0.990387 10.5702 1.15356 10.0742C1.28738 9.66775 1.50668 9.29365 1.79712 8.97852C2.15127 8.59439 2.62783 8.34395 3.16919 8.04395L3.53052 7.84375C3.5982 7.80625 3.60609 7.80247 3.61548 7.79688C3.75236 7.7152 3.86796 7.60169 3.95239 7.46582C3.95793 7.4569 3.96108 7.45132 4.00122 7.38184C4.03591 7.32179 4.04336 7.30948 4.04907 7.29883C4.12566 7.1559 4.16582 6.998 4.16821 6.84082C4.16817 6.8385 4.16833 6.83518 4.16821 6.83105C4.16774 6.81381 4.16691 6.78277 4.16626 6.74414L4.15845 6.31934C4.14807 5.70271 4.12809 5.16893 4.28247 4.67285C4.40902 4.26636 4.62123 3.89118 4.90454 3.57227C5.24479 3.18939 5.70473 2.93339 6.22485 2.63184L6.23071 2.62793L6.25024 2.61621L6.73853 2.33301L6.74048 2.33203C7.27384 2.02247 7.73255 1.74251 8.24341 1.63574ZM12.0002 9C10.3436 9.00018 9.00035 10.3433 9.00024 12C9.00026 13.6567 10.3436 14.9998 12.0002 15C13.657 14.9999 15.0002 13.6568 15.0002 12C15.0001 10.3433 13.6569 9.00012 12.0002 9Z" fill="black"/>
</svg>
